{
  "accessors": [
    {
      "bufferView": 2,
      "componentType": 5126,
      "count": 161,
      "max": [
        176.62152099609375,
        172.52362060546875,
        -213.39404296875
      ],
      "min": [
        -176.62152099609375,
        -162.22882080078125,
        -251.17373657226563
      ],
      "type": "VEC3"
    },
    {
      "bufferView": 2,
      "byteOffset": 1932,
      "componentType": 5126,
      "count": 161,
      "max": [
        0.907565712928772,
        0.6291928291320801,
        -0.4198838472366333
      ],
      "min": [
        -0.9043182134628296,
        -0.6679096817970276,
        -0.999803900718689
      ],
      "type": "VEC3"
    },
    {
      "bufferView": 3,
      "componentType": 5126,
      "count": 161,
      "max": [
        0.2123110443353653,
        0.9998040199279785,
        0.6263117790222168,
        1.0
      ],
      "min": [
        -0.21209239959716797,
        0.7425010204315186,
        -0.6613124012947083,
        1.0
      ],
      "type": "VEC4"
    },
    {
      "bufferView": 1,
      "componentType": 5126,
      "count": 161,
      "max": [
        0.26170000433921814,
        0.2750000059604645
      ],
      "min": [
        0.023499999195337296,
        0.009999999776482582
      ],
      "type": "VEC2"
    },
    {
      "bufferView": 0,
      "componentType": 5125,
      "count": 834,
      "type": "SCALAR"
    },
    {
      "bufferView": 2,
      "byteOffset": 3864,
      "componentType": 5126,
      "count": 3247,
      "max": [
        244.06089782714844,
        494.84051513671875,
        589.859130859375
      ],
      "min": [
        -235.47889709472656,
        -292.27740478515625,
        -226.63983154296875
      ],
      "type": "VEC3"
    },
    {
      "bufferView": 2,
      "byteOffset": 42828,
      "componentType": 5126,
      "count": 3247,
      "max": [
        1.0,
        1.0,
        1.0
      ],
      "min": [
        -1.0,
        -1.0,
        -0.9999956488609314
      ],
      "type": "VEC3"
    },
    {
      "bufferView": 3,
      "byteOffset": 2576,
      "componentType": 5126,
      "count": 3247,
      "max": [
        0.999991238117218,
        0.9996849894523621,
        0.9999902844429016,
        1.0
      ],
      "min": [
        -1.0,
        -0.9903174042701721,
        -0.9999430179595947,
        -1.0
      ],
      "type": "VEC4"
    },
    {
      "bufferView": 1,
      "byteOffset": 1288,
      "componentType": 5126,
      "count": 3247,
      "max": [
        0.9811999797821045,
        0.9900000095367432
      ],
      "min": [
        0.004699999932199717,
        0.009999999776482582
      ],
      "type": "VEC2"
    },
    {
      "bufferView": 0,
      "byteOffset": 3336,
      "componentType": 5125,
      "count": 15432,
      "type": "SCALAR"
    }
  ],
  "asset": {
    "extras": {
      "author": "shedmon (https://sketchfab.com/shedmon)",
      "license": "CC-BY-4.0 (http://creativecommons.org/licenses/by/4.0/)",
      "source": "https://sketchfab.com/3d-models/robocat-99bb3b13d0274e548629de85a5ebf364",
      "title": "RoboCat"
    },
    "generator": "Sketchfab-12.65.0",
    "version": "2.0"
  },
  "bufferViews": [
    {
      "buffer": 0,
      "byteLength": 65064,
      "name": "floatBufferViews",
      "target": 34963
    },
    {
      "buffer": 0,
      "byteLength": 27264,
      "byteOffset": 65064,
      "byteStride": 8,
      "name": "floatBufferViews",
      "target": 34962
    },
    {
      "buffer": 0,
      "byteLength": 81792,
      "byteOffset": 92328,
      "byteStride": 12,
      "name": "floatBufferViews",
      "target": 34962
    },
    {
      "buffer": 0,
      "byteLength": 54528,
      "byteOffset": 174120,
      "byteStride": 16,
      "name": "floatBufferViews",
      "target": 34962
    }
  ],
  "buffers": [
    {
      "byteLength": 228648,
      "uri": "scene.bin"
    }
  ],
  "extensionsUsed": [
    "KHR_materials_clearcoat",
    "KHR_materials_transmission"
  ],
  "images": [
    {
      "uri": "textures/wire_134006006_baseColor.jpeg"
    },
    {
      "uri": "textures/wire_134006006_metallicRoughness.png"
    },
    {
      "uri": "textures/wire_134006006_emissive.jpeg"
    },
    {
      "uri": "textures/wire_134006006_normal.png"
    },
    {
      "uri": "textures/Screen_baseColor.png"
    },
    {
      "uri": "textures/Screen_metallicRoughness.png"
    },
    {
      "uri": "textures/Screen_normal.png"
    },
    {
      "uri": "textures/Screen_transmission.png"
    }
  ],
  "materials": [
    {
      "doubleSided": true,
      "emissiveFactor": [
        1.0,
        1.0,
        1.0
      ],
      "emissiveTexture": {
        "index": 2
      },
      "extensions": {
        "KHR_materials_clearcoat": {
          "clearcoatFactor": 0.15979455094881104,
          "clearcoatNormalTexture": {
            "index": 3
          },
          "clearcoatRoughnessFactor": 1.0,
          "clearcoatRoughnessTexture": {
            "index": 1
          }
        }
      },
      "name": "wire_134006006",
      "normalTexture": {
        "index": 3
      },
      "occlusionTexture": {
        "index": 1
      },
      "pbrMetallicRoughness": {
        "baseColorTexture": {
          "index": 0
        },
        "metallicRoughnessTexture": {
          "index": 1
        }
      }
    },
    {
      "alphaMode": "BLEND",
      "doubleSided": true,
      "emissiveFactor": [
        0.09309814245047139,
        0.07454457289741181,
        0.0002986807494059114
      ],
      "extensions": {
        "KHR_materials_transmission": {
          "transmissionFactor": 1.0,
          "transmissionTexture": {
            "index": 7
          }
        }
      },
      "name": "Screen",
      "normalTexture": {
        "index": 6
      },
      "occlusionTexture": {
        "index": 5
      },
      "pbrMetallicRoughness": {
        "baseColorTexture": {
          "index": 4
        },
        "metallicRoughnessTexture": {
          "index": 5
        }
      }
    }
  ],
  "meshes": [
    {
      "name": "defaultMaterial",
      "primitives": [
        {
          "attributes": {
            "NORMAL": 1,
            "POSITION": 0,
            "TANGENT": 2,
            "TEXCOORD_0": 3
          },
          "indices": 4,
          "material": 1,
          "mode": 4
        }
      ]
    },
    {
      "name": "defaultMaterial",
      "primitives": [
        {
          "attributes": {
            "NORMAL": 6,
            "POSITION": 5,
            "TANGENT": 7,
            "TEXCOORD_0": 8
          },
          "indices": 9,
          "material": 0,
          "mode": 4
        }
      ]
    }
  ],
  "nodes": [
    {
      "children": [
        1
      ],
      "matrix": [
        0.0015225724782794714,
        0.0,
        0.0,
        0.0,
        0.0,
        3.3807900440929104e-19,
        -0.0015225724782794714,
        0.0,
        0.0,
        0.0015225724782794714,
        3.3807900440929104e-19,
        0.0,
        0.0,
        0.0,
        0.0,
        1.0
      ],
      "name": "Sketchfab_model"
    },
    {
      "children": [
        2,
        4
      ],
      "matrix": [
        1.0,
        0.0,
        0.0,
        0.0,
        0.0,
        -4.371139006309477e-08,
        0.999999999999999,
        0.0,
        0.0,
        -0.999999999999999,
        -4.371139006309477e-08,
        0.0,
        0.0,
        0.0,
        0.0,
        1.0
      ],
      "name": "Collada visual scene group"
    },
    {
      "children": [
        3
      ],
      "name": "Screen"
    },
    {
      "mesh": 0,
      "name": "defaultMaterial"
    },
    {
      "children": [
        5
      ],
      "name": "Cat"
    },
    {
      "mesh": 1,
      "name": "defaultMaterial"
    }
  ],
  "samplers": [
    {
      "magFilter": 9729,
      "minFilter": 9987,
      "wrapS": 10497,
      "wrapT": 10497
    }
  ],
  "scene": 0,
  "scenes": [
    {
      "name": "Sketchfab_Scene",
      "nodes": [
        0
      ]
    }
  ],
  "textures": [
    {
      "sampler": 0,
      "source": 0
    },
    {
      "sampler": 0,
      "source": 1
    },
    {
      "sampler": 0,
      "source": 2
    },
    {
      "sampler": 0,
      "source": 3
    },
    {
      "sampler": 0,
      "source": 4
    },
    {
      "sampler": 0,
      "source": 5
    },
    {
      "sampler": 0,
      "source": 6
    },
    {
      "sampler": 0,
      "source": 7
    }
  ]
}
